<svg xmlns="http://www.w3.org/2000/svg" viewBox="0 0 512 512" width="512" height="512">
  <rect width="512" height="512" rx="96" fill="#F59E0B"/>
  <!-- Sun rays -->
  <g fill="#FFF7E6" opacity="0.9">
    <rect x="248" y="40" width="16" height="60" rx="8"/>
    <rect x="248" y="412" width="16" height="60" rx="8"/>
    <rect x="40" y="248" width="60" height="16" rx="8"/>
    <rect x="412" y="248" width="60" height="16" rx="8"/>
    <rect x="108" y="100" width="16" height="60" rx="8" transform="rotate(45 116 130)"/>
    <rect x="380" y="100" width="16" height="60" rx="8" transform="rotate(-45 396 130)"/>
    <rect x="108" y="352" width="16" height="60" rx="8" transform="rotate(-45 116 382)"/>
    <rect x="380" y="352" width="16" height="60" rx="8" transform="rotate(45 396 382)"/>
  </g>
  <!-- Sun circle -->
  <circle cx="256" cy="210" r="72" fill="#FFF7E6"/>
  <!-- Beer mug -->
  <rect x="198" y="290" width="80" height="100" rx="12" fill="#FFF7E6"/>
  <rect x="278" y="305" width="30" height="50" rx="15" fill="none" stroke="#FFF7E6" stroke-width="14"/>
  <!-- Beer foam -->
  <ellipse cx="238" cy="288" rx="42" ry="18" fill="#FFF7E6"/>
  <!-- Beer body tint -->
  <rect x="206" y="298" width="64" height="84" rx="8" fill="#FCD34D" opacity="0.7"/>
</svg>
